<svg id="Livello_1" data-name="Livello 1" xmlns="http://www.w3.org/2000/svg" viewBox="0 0 1440 271.8"><defs><style>.cls-1{fill:#e1e3f3;}</style></defs><path class="cls-1" d="M1744.33,1171.59V899.94c-9.19,9.14-42.21,32.32-135.38,23.76-100.12-9.19-111.72,63.36-113,82.36v0c-.17,2.46-.17,4-.16,4.37v.09c-1.58,39.17-7.4,107.59-15.56,131.91a55.29,55.29,0,0,1-19.47,29.13Z" transform="translate(-304.33 -899.94)"/><path class="cls-1" d="M305.59,1171.59h1096c-9-12.85-7.82-36.37,15.45-71.86C1484.63,996.67,1444.74,932,1444.74,932c-2-2.36-4-4.49-6-6.43-42-41.08-85.52,5-111.94,28h0c-18.34,16-30.35,11.74-36.33,7.09a20.15,20.15,0,0,1-4.56-4.86s-65-79.31-129.09-33.84c-26.42,19.37-33.66,43.09-34.69,60.82a75,75,0,0,0,2.73,26c8.54,25.92,43.79,61.78,14,77.56-34,14.6-40.23-30.48-43.08-58.51-1.66-13.56-2.84-27.33-8-42.53A125.43,125.43,0,0,0,1073,955.69c-19-30-91.94-34.54-104.69-34.54h0c-186.1,0-530.68,77.64-663.93,28.31v222.27A5.59,5.59,0,0,1,305.59,1171.59Z" transform="translate(-304.33 -899.94)"/></svg>