<svg id="b4f04028-8e69-4aa4-95f0-dce907df592a" data-name="Livello 1" xmlns="http://www.w3.org/2000/svg" viewBox="0 0 509 384.27"><defs><style>.bc355d8a-d29d-4730-b211-1c816da2169c{fill:#e1e3f3;}.b734e49a-98ec-4de1-a144-1081bf036011{fill:#8ebf34;}.ba09b65e-ec70-4de4-8faa-74d09c335404{fill:#615aa4;}</style></defs><path class="bc355d8a-d29d-4730-b211-1c816da2169c" d="M1866.87,1167.18c.48,3.82,1,7.64,1.43,11.48,5.45,55.16,9.47,98.82-29.49,195.22-25,57.57-79.7,102.66-142.06,120.75,0,0-110.15,27.94-187-25.22-89.62-57.91-135.55-127.75-145.19-156-.12-.37-.23-.73-.35-1.09-15-48.16,85.42-119.69,224.22-159.76,16.42-4.74,32.64-8.83,48.5-12.27.87,2.68,1.1,5.41-.4,8.1-2.13,3.85-5.31,8.58-12.89,14.33-14.91,11.32-46.85,26.61-121.42,46.92a317.3,317.3,0,0,0-33.13,10.91c-81.8,32.18-90.94,80.75-86.16,86.37,3.29,10.59,23,23.14,68.4,26.59,45.91,3.49,104.92-3.33,166.21-19.22h0c4.14-1.08,8.33-2.2,12.49-3.37h0c.69-.2,1.39-.38,2.08-.59h0c4.18-1,13.53-2,21.94,4.38a33.21,33.21,0,0,1,7,6.68c2.81,3.63,4.22,7.21,5.77,10.7,3,7.26,8.43,18.79,18.36,12,8.49-6.73-5.64-13.35-10.35-19.56a17.75,17.75,0,0,1-2.83-6.74c-1-4.82-.4-11.78,6.73-19.18,17.43-17.57,44.45-1.82,44.45-1.82a6.23,6.23,0,0,0,1.84.92c2.29.74,6.51.86,11.27-5h0c6.85-8.38,17.54-24.37,34.26-16.92.79.35,1.6.76,2.42,1.22,0,0,17.78,13.94,3.53,47.19-13.94,32.52,22.77,24.22,23.69,6.12,1-8.47-3.65-33-6-41.36a120.69,120.69,0,0,1-3.94-24.44c-.53-11.08,1-22.64,8.17-28,.75-.53,1.5-1,2.23-1.58,33.19-23.64,51.77-48.13,47.34-62.37-.06-.21-.13-.39-.2-.6l-.12-.32c-.11-.28-.24-.57-.37-.86a3.19,3.19,0,0,0-.23-.45,2,2,0,0,0-.15-.29c-9.79-18.39-61.69-34.07-110.76-43.35,70.32-3.15,121.32,10.73,130.56,40.45Z" transform="translate(-1362.74 -1117.7)"/><path class="b734e49a-98ec-4de1-a144-1081bf036011" d="M1709.48,1435.92c-21.24,0-38.45-16.59-38.45-37.06s17.21-37,38.45-37,38.44,16.59,38.44,37-17.21,37.06-38.44,37.06M1583,1465.22c-21.24,0-38.45-16.59-38.45-37s17.21-37.06,38.45-37.06,38.44,16.59,38.44,37.06-17.21,37-38.44,37m126.48-114.83c-27.63,0-50.09,21.55-50.3,48.12-11.43-6.14-24.1-3.14-31.56,7.29v0a50.59,50.59,0,0,0-44.61-26.13c-27.74,0-50.3,21.75-50.3,48.48s22.56,48.47,50.3,48.47,50.29-21.74,50.29-48.47a46.72,46.72,0,0,0-1-9.81,16.8,16.8,0,0,1,28.7-6.7c5.83,20.54,25.36,35.67,48.52,35.67,27.72,0,50.29-21.74,50.29-48.47s-22.57-48.48-50.29-48.48Z" transform="translate(-1362.74 -1117.7)"/><path class="ba09b65e-ec70-4de4-8faa-74d09c335404" d="M1686.41,1474a36.3,36.3,0,0,1-20.67,13.29l-.29,0a37.17,37.17,0,0,1-24.49-2.79,5.61,5.61,0,0,1-2.94-3.31,5.33,5.33,0,0,1,.35-4.34,5.53,5.53,0,0,1,3.39-2.81,6.16,6.16,0,0,1,4.51.3,25.19,25.19,0,0,0,16.56,1.85,24.27,24.27,0,0,0,14.08-9,6,6,0,0,1,3.84-2.27,6.24,6.24,0,0,1,4.42,1.07,5.78,5.78,0,0,1,2.32,3.71,5.29,5.29,0,0,1-1.08,4.22Z" transform="translate(-1362.74 -1117.7)"/><path class="ba09b65e-ec70-4de4-8faa-74d09c335404" d="M1728.42,1403.71a8,8,0,0,1-10.83-1.71s0,0,0-.07l0,0a8.29,8.29,0,0,0-9.09-2.89,8.38,8.38,0,0,0-2.13,1,7.78,7.78,0,0,0-3.46,6.33v.12a7.83,7.83,0,0,1-15.58.87,4.63,4.63,0,0,1,0-.54c0-.21,0-.42,0-.64a22.92,22.92,0,0,1,16.38-21.46,24.19,24.19,0,0,1,26.54,8.37l.11.15a.41.41,0,0,1,.07.11c.11.15.21.31.31.46a7.35,7.35,0,0,1-2.24,9.91Z" transform="translate(-1362.74 -1117.7)"/><path class="ba09b65e-ec70-4de4-8faa-74d09c335404" d="M1602,1433.13a8,8,0,0,1-10.83-1.73l0-.06,0,0a8.29,8.29,0,0,0-9.08-2.91,8.06,8.06,0,0,0-2.13,1,7.79,7.79,0,0,0-3.47,6.32v.13a7.83,7.83,0,0,1-15.59.85,4.8,4.8,0,0,1,0-.55c0-.21,0-.42,0-.63a23,23,0,0,1,16.4-21.45,24.23,24.23,0,0,1,26.54,8.41s.08.09.11.15a.26.26,0,0,1,.07.11c.11.15.21.31.31.46a7.36,7.36,0,0,1-2.25,9.91Z" transform="translate(-1362.74 -1117.7)"/><path class="ba09b65e-ec70-4de4-8faa-74d09c335404" d="M1848.15,1172.59c4.43,14.25-14.16,38.73-47.34,62.37-.74.53-1.48,1.06-2.24,1.58-7.18,5.38-8.69,16.93-8.16,28a120.69,120.69,0,0,0,3.94,24.45c2.33,8.34,7,32.89,6,41.35-.92,18.1-37.64,26.4-23.7-6.11,14.26-33.26-3.53-47.2-3.53-47.2-.82-.46-1.62-.87-2.41-1.22-16.72-7.44-27.41,8.53-34.27,16.92h0c-4.77,5.82-9,5.7-11.27,5a6.24,6.24,0,0,1-1.85-.91s-27-15.75-44.44,1.81c-7.14,7.41-7.72,14.36-6.73,19.19a17.56,17.56,0,0,0,2.83,6.73c4.71,6.21,18.84,12.84,10.35,19.57-9.94,6.76-15.34-4.77-18.36-12-1.55-3.48-3-7.07-5.77-10.7a34,34,0,0,0-7-6.68c-8.42-6.41-17.77-5.33-21.94-4.38h0a21.55,21.55,0,0,0-2.09.58h0c-4.17,1.18-8.36,2.31-12.5,3.38h0c-61.29,15.89-120.31,22.72-166.21,19.21-45.42-3.45-65.12-16-68.4-26.58-4.79-5.62,4.36-54.19,86.16-86.37a322.89,322.89,0,0,1,33.13-10.91c74.58-20.31,106.51-35.6,121.42-46.92,7.58-5.75,10.75-10.49,12.89-14.33,1.5-2.69,1.27-5.42.4-8.1-2.78-8.66-12.1-16.81,9.79-21.61,12.46-2.72,50.1.61,89.56,8.08h0c49.08,9.28,101,25,110.76,43.35l.15.29a4.93,4.93,0,0,1,.23.46c.13.28.26.56.37.85a3.21,3.21,0,0,1,.12.33c.07.19.14.39.2.59" transform="translate(-1362.74 -1117.7)"/></svg>