<?xml version="1.0" encoding="utf-8"?>
<!-- Generator: Adobe Illustrator 24.2.3, SVG Export Plug-In . SVG Version: 6.00 Build 0)  -->
<svg version="1.1" id="Livello_1" xmlns="http://www.w3.org/2000/svg" xmlns:xlink="http://www.w3.org/1999/xlink" x="0px" y="0px"
	 viewBox="0 0 2048 2048" style="enable-background:new 0 0 2048 2048;" xml:space="preserve">
<style type="text/css">
	.st0{fill:#FAFAFD;}
</style>
<path class="st0" d="M850.5,1061.4c-2.2,3.1-5.5,5.2-9.2,6.1l-0.1,0c-1.1,0.3-2.3,0.4-3.5,0.4c-2.5,0-5.1-0.6-7.4-1.7
	c-0.6-0.3-1.1-0.9-1.3-1.5c-0.2-0.7-0.2-1.4,0.2-2c0.3-0.6,0.8-1.1,1.5-1.3c0.7-0.2,1.4-0.2,2,0.1c2.3,1.1,4.9,1.4,7.3,0.9
	c2.5-0.6,4.7-2,6.2-4.1c0.4-0.6,1-0.9,1.7-1c0.7-0.1,1.4,0.1,2,0.5c0.5,0.4,0.9,1,1,1.7C851,1060.2,850.9,1060.9,850.5,1061.4
	L850.5,1061.4z"/>
<path class="st0" d="M869.1,1029.1c-1.5,1.1-3.7,0.7-4.8-0.8c0,0,0,0,0,0c0,0,0,0,0,0c-0.9-1.3-2.6-1.8-4-1.3
	c-0.3,0.1-0.6,0.3-0.9,0.5c-1,0.7-1.5,1.8-1.5,2.9c0,0,0,0,0,0v0c0,1.9-1.5,3.5-3.4,3.5c-1.8,0-3.4-1.3-3.5-3.1c0-0.1,0-0.2,0-0.3
	c0-0.1,0-0.2,0-0.3c0-4.4,2.9-8.4,7.3-9.9c4.5-1.4,9.2,0.2,11.8,3.8c0,0,0,0,0,0.1c0,0,0,0,0,0.1c0,0.1,0.1,0.1,0.1,0.2
	C871,1026.1,870.6,1028.1,869.1,1029.1L869.1,1029.1z"/>
<path class="st0" d="M813,1042.6c-1.5,1.1-3.7,0.7-4.8-0.8c0,0,0,0,0,0c0,0,0,0,0,0c-0.9-1.3-2.6-1.8-4-1.3
	c-0.3,0.1-0.6,0.3-0.9,0.5c-1,0.7-1.5,1.8-1.5,2.9c0,0,0,0,0,0v0c0,1.9-1.5,3.5-3.4,3.5c-1.8,0-3.4-1.3-3.5-3.1c0-0.1,0-0.2,0-0.2
	c0-0.1,0-0.2,0-0.3c0.1-4.4,2.9-8.4,7.3-9.9c4.5-1.4,9.2,0.3,11.8,3.9c0,0,0,0,0,0.1c0,0,0,0,0,0.1c0,0.1,0.1,0.1,0.1,0.2
	C814.9,1039.6,814.5,1041.6,813,1042.6L813,1042.6z"/>
<path class="st0" d="M860.7,1043.9c-9.4,0-17-7.6-17-17c0-9.4,7.6-17,17-17s17,7.6,17,17C877.7,1036.3,870.1,1043.9,860.7,1043.9
	 M804.6,1057.4c-9.4,0-17-7.6-17-17c0-9.4,7.6-17,17-17s17,7.6,17,17C821.7,1049.8,814,1057.4,804.6,1057.4 M860.7,1004.6
	c-12.2,0-22.2,9.9-22.3,22.1c-5.1-2.8-10.7-1.4-14,3.4c0,0,0,0,0,0c-3.7-7.1-11.2-12-19.8-12c-12.3,0-22.3,10-22.3,22.3
	c0,12.3,10,22.3,22.3,22.3c12.3,0,22.3-10,22.3-22.3c0-1.5-0.2-3.1-0.5-4.5c1.5-5.8,8.6-7.7,12.7-3.1c2.6,9.4,11.2,16.4,21.5,16.4
	c12.3,0,22.3-10,22.3-22.3C883,1014.6,873,1004.6,860.7,1004.6"/>
</svg>
