<svg id="bf710117-2d3e-446e-ba2f-9bb36ab1f6ba" data-name="Livello 1" xmlns="http://www.w3.org/2000/svg" viewBox="0 0 31 32"><defs><style>.abe9099d-6212-4f97-a08e-3395b499836a{fill:#8ebf34;}</style></defs><path class="abe9099d-6212-4f97-a08e-3395b499836a" d="M1027.48,1744.37a7.48,7.48,0,1,1,7.25-7.48,7.38,7.38,0,0,1-7.25,7.48m0-19.73a12.07,12.07,0,0,0-11.86,12.25,12.48,12.48,0,0,0,2,6.8l-8.6,8.88a2.44,2.44,0,0,0,0,3.37,2.24,2.24,0,0,0,1.63.7,2.28,2.28,0,0,0,1.64-.7l8.6-8.88a11.48,11.48,0,0,0,6.59,2.07,12.25,12.25,0,0,0,0-24.49" transform="translate(-1008.34 -1724.64)"/></svg>