<svg id="Livello_1" data-name="Livello 1" xmlns="http://www.w3.org/2000/svg" viewBox="0 0 1440 284"><path fill="#e1e3f3" d="M1744.33,883.43v284h-1440V933c133.25,49.33,477.83-28.31,663.93-28.31h0c12.75,0,85.68,4.58,104.69,34.54a125.43,125.43,0,0,1,14.84,29.63c5.14,15.2,6.32,29,8,42.53,2.85,28,9.13,73.11,43.08,58.51,29.76-15.78-5.49-51.64-14-77.56a75,75,0,0,1-2.73-26c1-17.73,8.27-41.45,34.69-60.82,64.13-45.47,129.09,33.84,129.09,33.84a20.15,20.15,0,0,0,4.56,4.86c6,4.65,18,8.9,36.33-7.09h0c26.42-23,69.91-69.08,111.94-28,2,1.94,4,4.07,6,6.43,0,0,39.89,64.67-27.69,167.73-66.08,100.76,46,105,63.13,42.73,8.16-24.32,14-92.74,15.56-131.91V994c0-.36,0-1.91.16-4.37v0c1.33-19,12.93-91.55,113-82.36C1702.12,915.75,1735.14,892.57,1744.33,883.43Z" transform="translate(-304.33 -883.43)"/></svg>